<svg width="32" height="32" viewBox="0 0 32 32" fill="none" xmlns="http://www.w3.org/2000/svg">
<path fill-rule="evenodd" clip-rule="evenodd" d="M2.34961 6.99998C2.34961 6.08871 3.08834 5.34998 3.99961 5.34998H27.9996C28.9109 5.34998 29.6496 6.08871 29.6496 6.99998C29.6496 7.91125 28.9109 8.64998 27.9996 8.64998H3.99961C3.08834 8.64998 2.34961 7.91125 2.34961 6.99998ZM2.34961 16C2.34961 15.0887 3.08834 14.35 3.99961 14.35H27.9996C28.9109 14.35 29.6496 15.0887 29.6496 16C29.6496 16.9112 28.9109 17.65 27.9996 17.65H15.9996H3.99961C3.08834 17.65 2.34961 16.9112 2.34961 16ZM2.34961 25C2.34961 24.0887 3.08834 23.35 3.99961 23.35H27.9996C28.9109 23.35 29.6496 24.0887 29.6496 25C29.6496 25.9112 28.9109 26.65 27.9996 26.65H3.99961C3.08834 26.65 2.34961 25.9112 2.34961 25Z" fill="white"/>
</svg>
