<svg width="32" height="32" viewBox="0 0 32 32" fill="none" xmlns="http://www.w3.org/2000/svg">
<path d="M18.6519 16L26.0738 8.57808C26.426 8.22646 26.6241 7.74932 26.6246 7.25161C26.625 6.75391 26.4277 6.27642 26.0761 5.92418C25.7245 5.57193 25.2473 5.3738 24.7496 5.37336C24.2519 5.37292 23.7744 5.57021 23.4222 5.92183L16.0003 13.3437L8.57845 5.92183C8.22621 5.56959 7.74847 5.3717 7.25032 5.3717C6.75218 5.3717 6.27444 5.56959 5.9222 5.92183C5.56996 6.27407 5.37207 6.75181 5.37207 7.24996C5.37207 7.7481 5.56996 8.22584 5.9222 8.57808L13.3441 16L5.9222 23.4218C5.56996 23.7741 5.37207 24.2518 5.37207 24.75C5.37207 25.2481 5.56996 25.7258 5.9222 26.0781C6.27444 26.4303 6.75218 26.6282 7.25032 26.6282C7.74847 26.6282 8.22621 26.4303 8.57845 26.0781L16.0003 18.6562L23.4222 26.0781C23.7744 26.4303 24.2522 26.6282 24.7503 26.6282C25.2485 26.6282 25.7262 26.4303 26.0784 26.0781C26.4307 25.7258 26.6286 25.2481 26.6286 24.75C26.6286 24.2518 26.4307 23.7741 26.0784 23.4218L18.6519 16Z" fill="white"/>
</svg>
