<svg width="24" height="25" viewBox="0 0 24 25" fill="none" xmlns="http://www.w3.org/2000/svg">
<g clip-path="url(#clip0_1121_7848)">
<path d="M15 9.02783V1.52783H1.5V24.0278H7.5V19.5278H9V24.0278H22.5V9.02783H15ZM5.25 21.0278H3.75V19.5278H5.25V21.0278ZM5.25 17.2778H3.75V15.7778H5.25V17.2778ZM5.25 13.5278H3.75V12.0278H5.25V13.5278ZM5.25 9.77783H3.75V8.27783H5.25V9.77783ZM5.25 6.02783H3.75V4.52783H5.25V6.02783ZM11.25 4.52783H12.75V6.02783H11.25V4.52783ZM9 17.2778H7.5V15.7778H9V17.2778ZM9 13.5278H7.5V12.0278H9V13.5278ZM9 9.77783H7.5V8.27783H9V9.77783ZM9 6.02783H7.5V4.52783H9V6.02783ZM12.75 21.0278H11.25V19.5278H12.75V21.0278ZM12.75 17.2778H11.25V15.7778H12.75V17.2778ZM12.75 13.5278H11.25V12.0278H12.75V13.5278ZM12.75 9.77783H11.25V8.27783H12.75V9.77783ZM21 22.5278H15V21.0278H16.5V19.5278H15V17.2778H16.5V15.7778H15V13.5278H16.5V12.0278H15V10.5278H21V22.5278Z" fill="white"/>
<path d="M18 19.5278H19.5V21.0278H18V19.5278ZM18 15.7778H19.5V17.2778H18V15.7778ZM18 12.0278H19.5V13.5278H18V12.0278Z" fill="white"/>
</g>
<defs>
<clipPath id="clip0_1121_7848">
<rect width="24" height="24" fill="white" transform="translate(0 0.777832)"/>
</clipPath>
</defs>
</svg>
