<svg width="24" height="24" viewBox="0 0 24 24" fill="none" xmlns="http://www.w3.org/2000/svg">
<path fill-rule="evenodd" clip-rule="evenodd" d="M4.87368 2.40003L4.87539 2.40002L19.1271 2.40003C19.9812 2.40246 20.7997 2.74284 21.4036 3.34679C22.0076 3.95075 22.348 4.7692 22.3504 5.62332L22.3504 5.62503L22.3504 14.625L22.3504 14.6267C22.348 15.4809 22.0076 16.2993 21.4036 16.9033C20.7997 17.5072 19.9812 17.8476 19.1271 17.85L19.1254 17.85H11.4654L7.13462 21.4609C6.95578 21.61 6.70683 21.6421 6.49597 21.5434C6.2851 21.4447 6.15039 21.2329 6.15039 21V17.85H4.87539L4.87368 17.85C4.01956 17.8476 3.20112 17.5072 2.59716 16.9033C1.9932 16.2993 1.65282 15.4809 1.65039 14.6267L1.65039 14.625V5.62332C1.65282 4.7692 1.9932 3.95075 2.59716 3.34679C3.20112 2.74284 4.01956 2.40246 4.87368 2.40003ZM11.5281 17.7977C11.528 17.7978 11.5283 17.7976 11.5281 17.7977V17.7977ZM4.87629 3.60003C4.33954 3.60177 3.82525 3.81576 3.44569 4.19532C3.06612 4.57488 2.85213 5.08917 2.85039 5.62593V14.6241C2.85213 15.1609 3.06612 15.6752 3.44569 16.0547C3.82522 16.4343 4.33946 16.6483 4.87617 16.65H6.75039C7.08176 16.65 7.35039 16.9187 7.35039 17.25V19.7186L10.7589 16.8767C10.9342 16.7304 11.1557 16.65 11.384 16.65C11.3839 16.65 11.384 16.65 11.384 16.65H19.1246C19.6613 16.6483 20.1756 16.4343 20.5551 16.0547C20.9347 15.6751 21.1487 15.1608 21.1504 14.624C21.1504 14.6237 21.1504 14.6242 21.1504 14.624L21.1504 5.62673C21.1504 5.62652 21.1504 5.62695 21.1504 5.62673C21.1487 5.08992 20.9347 4.57492 20.5551 4.19532C20.1755 3.81576 19.6612 3.60177 19.1245 3.60003H4.87629Z" fill="black"/>
<path d="M7.5 11.625C8.32843 11.625 9 10.9534 9 10.125C9 9.29657 8.32843 8.625 7.5 8.625C6.67157 8.625 6 9.29657 6 10.125C6 10.9534 6.67157 11.625 7.5 11.625Z" fill="black"/>
<path d="M12 11.625C12.8284 11.625 13.5 10.9534 13.5 10.125C13.5 9.29657 12.8284 8.625 12 8.625C11.1716 8.625 10.5 9.29657 10.5 10.125C10.5 10.9534 11.1716 11.625 12 11.625Z" fill="black"/>
<path d="M16.5 11.625C17.3284 11.625 18 10.9534 18 10.125C18 9.29657 17.3284 8.625 16.5 8.625C15.6716 8.625 15 9.29657 15 10.125C15 10.9534 15.6716 11.625 16.5 11.625Z" fill="black"/>
</svg>
