<svg width="16" height="24" viewBox="0 0 16 24" fill="none" xmlns="http://www.w3.org/2000/svg">
<path d="M8 8C9.10457 8 10 7.10457 10 6C10 4.89543 9.10457 4 8 4C6.89543 4 6 4.89543 6 6C6 7.10457 6.89543 8 8 8Z" fill="#3546E9"/>
<path d="M8 14C9.10457 14 10 13.1046 10 12C10 10.8954 9.10457 10 8 10C6.89543 10 6 10.8954 6 12C6 13.1046 6.89543 14 8 14Z" fill="#3546E9"/>
<path d="M8 20C9.10457 20 10 19.1046 10 18C10 16.8954 9.10457 16 8 16C6.89543 16 6 16.8954 6 18C6 19.1046 6.89543 20 8 20Z" fill="#3546E9"/>
</svg>
