<svg width="24" height="24" viewBox="0 0 24 24" fill="none" xmlns="http://www.w3.org/2000/svg">
<path fill-rule="evenodd" clip-rule="evenodd" d="M21.9923 11.2882C21.9856 11.0803 21.938 10.8757 21.8522 10.6863C21.7663 10.4969 21.644 10.3264 21.4922 10.1846C21.3403 10.0428 21.162 9.93253 20.9675 9.86016C20.773 9.78779 20.5662 9.75473 20.3589 9.76289C20.1806 9.76289 20.0019 9.76559 19.8231 9.7683C19.4652 9.77373 19.1068 9.77916 18.7498 9.76289C18.5551 9.76289 18.257 9.61645 18.2084 9.45781C18.1909 9.34554 18.1977 9.23083 18.2281 9.12138C18.2585 9.01193 18.312 8.91028 18.3848 8.82326C18.5931 8.57554 18.8259 8.34798 19.059 8.12021C19.2106 7.97212 19.3622 7.82395 19.5072 7.67009C19.6645 7.52228 19.7899 7.34368 19.8756 7.14532C19.9613 6.94697 20.0055 6.7331 20.0055 6.51692C20.0055 6.30074 19.9613 6.08686 19.8756 5.88851C19.7899 5.69015 19.6645 5.51155 19.5072 5.36374C19.2521 5.07943 18.989 4.82691 18.7205 4.56915C18.7009 4.55033 18.6813 4.53148 18.6616 4.51259C18.5102 4.35357 18.3282 4.227 18.1267 4.14052C17.9252 4.05404 17.7082 4.00945 17.489 4.00945C17.2698 4.00945 17.0529 4.05404 16.8513 4.14052C16.6498 4.227 16.4678 4.35357 16.3164 4.51259C16.1767 4.64593 16.0408 4.78387 15.9049 4.92176C15.6739 5.15616 15.443 5.39041 15.194 5.6017C15.113 5.67732 15.0168 5.73469 14.9119 5.76994C14.807 5.80519 14.6957 5.81752 14.5857 5.8061C14.4962 5.73733 14.4226 5.64989 14.3701 5.54981C14.3176 5.44973 14.2873 5.3394 14.2815 5.22646C14.2511 4.88071 14.2612 4.53225 14.2714 4.18379C14.2764 4.00956 14.2815 3.83533 14.2815 3.66144C14.2946 3.44164 14.2613 3.22154 14.184 3.01548C14.1066 2.80941 13.9868 2.622 13.8325 2.46544C13.6781 2.30889 13.4926 2.18669 13.288 2.10681C13.0834 2.02694 12.8643 1.99117 12.6451 2.00184H11.4953C10.455 2.00184 9.81928 2.6486 9.79799 3.70415C9.79799 3.84325 9.79942 3.98256 9.80085 4.12197C9.80494 4.52066 9.80904 4.92016 9.77974 5.31798C9.76918 5.41795 9.73636 5.51426 9.68371 5.5998C9.63107 5.68534 9.55993 5.75792 9.47557 5.8122C9.37128 5.84273 9.26105 5.84673 9.15484 5.82382C9.04863 5.80092 8.94978 5.75184 8.86722 5.68102C8.60474 5.4526 8.36062 5.20208 8.11623 4.95127C7.97546 4.8068 7.83459 4.66223 7.69007 4.52174C7.53891 4.36233 7.35702 4.23541 7.15545 4.14868C6.95387 4.06195 6.73682 4.01723 6.51748 4.01723C6.29814 4.01723 6.08109 4.06195 5.87952 4.14868C5.67794 4.23541 5.49605 4.36233 5.34489 4.52174C5.08026 4.778 4.82172 5.04036 4.56317 5.30273C3.8149 6.07151 3.80882 6.97757 4.56317 7.74331C4.69661 7.88164 4.83459 8.01582 4.9724 8.14983C5.20841 8.37935 5.4439 8.60836 5.65515 8.85682C5.72527 8.94012 5.77544 9.03843 5.8018 9.14419C5.82816 9.24995 5.83002 9.36037 5.80724 9.46697C5.74352 9.55462 5.66154 9.62731 5.56699 9.67999C5.47244 9.73267 5.36759 9.76408 5.25973 9.77204C4.89258 9.79849 4.52408 9.78966 4.15603 9.78084C3.97217 9.77644 3.78843 9.77204 3.60502 9.77204C3.18572 9.77039 2.78273 9.93484 2.48368 10.2296C2.18464 10.5244 2.01372 10.9257 2.00811 11.3462C1.99594 11.6208 2 11.8981 2.00406 12.1753C2.00608 12.314 2.00811 12.4526 2.00811 12.5909C1.99824 12.8146 2.03479 13.0379 2.11544 13.2466C2.1961 13.4554 2.3191 13.645 2.47665 13.8036C2.63421 13.9622 2.82288 14.0863 3.03073 14.1679C3.23858 14.2496 3.46107 14.287 3.68411 14.278C3.85219 14.278 4.02061 14.2746 4.18926 14.2712C4.52723 14.2644 4.8661 14.2576 5.20498 14.278C5.32168 14.2849 5.43578 14.3155 5.54034 14.3679C5.64491 14.4204 5.73778 14.4935 5.81332 14.583C5.88632 14.7203 5.73728 15.0406 5.59736 15.1932C5.38762 15.4418 5.15397 15.67 4.91964 15.8989C4.78016 16.0352 4.64044 16.1716 4.50537 16.3128C4.34919 16.4616 4.22482 16.6407 4.13983 16.8392C4.05484 17.0377 4.01102 17.2515 4.01102 17.4675C4.01102 17.6835 4.05484 17.8973 4.13983 18.0958C4.22482 18.2943 4.34919 18.4734 4.50537 18.6222C4.7913 18.9273 5.0833 19.2323 5.38444 19.5038C5.53277 19.6605 5.71133 19.7852 5.90926 19.8705C6.10718 19.9557 6.32033 19.9997 6.53573 19.9997C6.75113 19.9997 6.96428 19.9557 7.16221 19.8705C7.36013 19.7852 7.53869 19.6605 7.68703 19.5038C7.81823 19.3776 7.94649 19.2483 8.07463 19.1192C8.31484 18.8772 8.5546 18.6356 8.81247 18.4147C8.97672 18.2775 9.29306 18.1097 9.42082 18.1859C9.51478 18.2592 9.59252 18.3513 9.64907 18.4563C9.70563 18.5614 9.73977 18.6771 9.74932 18.7961C9.77618 19.1075 9.7734 19.4217 9.77062 19.7356C9.76836 19.9906 9.7661 20.2454 9.77974 20.4984C9.79632 20.9033 9.96945 21.2858 10.2624 21.5648C10.5554 21.8439 10.9452 21.9975 11.3493 21.9932C11.5023 21.9932 11.6546 21.9949 11.807 21.9966C12.1122 22 12.4178 22.0034 12.7302 21.9932C13.1256 21.9828 13.5024 21.8225 13.7846 21.5445C14.0668 21.2666 14.2335 20.8916 14.2511 20.4953V19.6198C14.2252 19.3438 14.2252 19.066 14.2511 18.79C14.2937 18.5734 14.394 18.2744 14.5553 18.1981C14.6632 18.1802 14.7737 18.1864 14.8789 18.2165C14.9841 18.2466 15.0814 18.2997 15.1636 18.372C15.4119 18.5832 15.6389 18.8178 15.866 19.0525C16.0229 19.2146 16.1798 19.3768 16.3438 19.5313C16.4907 19.6789 16.6652 19.796 16.8573 19.8759C17.0493 19.9558 17.2552 19.9969 17.4632 19.9969C17.6711 19.9969 17.877 19.9558 18.0691 19.8759C18.2611 19.796 18.4356 19.6789 18.5825 19.5313C18.8867 19.2506 19.1756 18.9517 19.4616 18.6527C19.6276 18.5022 19.76 18.3183 19.8501 18.1129C19.9403 17.9076 19.9861 17.6854 19.9847 17.461C19.9833 17.2366 19.9346 17.0151 19.8418 16.8109C19.749 16.6067 19.6143 16.4245 19.4464 16.2762C19.318 16.1442 19.1846 16.0156 19.0512 15.887C18.8084 15.6529 18.5653 15.4186 18.3513 15.1627C18.2801 15.0738 18.2291 14.9705 18.2018 14.8598C18.1745 14.7492 18.1715 14.6339 18.1932 14.522C18.2418 14.3786 18.543 14.2597 18.7407 14.2474C19.05 14.2245 19.3604 14.2281 19.6706 14.2317C19.8972 14.2343 20.1237 14.2369 20.3498 14.2291C20.7694 14.239 21.1758 14.0818 21.4802 13.792C21.7845 13.5021 21.9621 13.1032 21.974 12.6824C22.0065 12.2183 22.0085 11.7526 21.9801 11.2882H21.9923ZM11.9901 15.1389C13.6469 15.1389 14.9901 13.7958 14.9901 12.1389C14.9901 10.4821 13.6469 9.13891 11.9901 9.13891C10.3332 9.13891 8.99005 10.4821 8.99005 12.1389C8.99005 13.7958 10.3332 15.1389 11.9901 15.1389Z" fill="white"/>
</svg>
