<svg width="24" height="24" viewBox="0 0 24 24" fill="none" xmlns="http://www.w3.org/2000/svg">
<path d="M3 6.75H13.6289C13.7841 7.18852 14.0714 7.56816 14.4512 7.83667C14.8311 8.10518 15.2848 8.24936 15.75 8.24936C16.2152 8.24936 16.6689 8.10518 17.0488 7.83667C17.4286 7.56816 17.7159 7.18852 17.8711 6.75H21C21.1989 6.75 21.3897 6.67098 21.5303 6.53033C21.671 6.38968 21.75 6.19891 21.75 6C21.75 5.80109 21.671 5.61032 21.5303 5.46967C21.3897 5.32902 21.1989 5.25 21 5.25H17.8711C17.7159 4.81148 17.4286 4.43184 17.0488 4.16333C16.6689 3.89482 16.2152 3.75064 15.75 3.75064C15.2848 3.75064 14.8311 3.89482 14.4512 4.16333C14.0714 4.43184 13.7841 4.81148 13.6289 5.25H3C2.80109 5.25 2.61032 5.32902 2.46967 5.46967C2.32902 5.61032 2.25 5.80109 2.25 6C2.25 6.19891 2.32902 6.38968 2.46967 6.53033C2.61032 6.67098 2.80109 6.75 3 6.75ZM21 17.25H17.8711C17.7159 16.8115 17.4286 16.4318 17.0488 16.1633C16.6689 15.8948 16.2152 15.7506 15.75 15.7506C15.2848 15.7506 14.8311 15.8948 14.4512 16.1633C14.0714 16.4318 13.7841 16.8115 13.6289 17.25H3C2.80109 17.25 2.61032 17.329 2.46967 17.4697C2.32902 17.6103 2.25 17.8011 2.25 18C2.25 18.1989 2.32902 18.3897 2.46967 18.5303C2.61032 18.671 2.80109 18.75 3 18.75H13.6289C13.7841 19.1885 14.0714 19.5682 14.4512 19.8367C14.8311 20.1052 15.2848 20.2494 15.75 20.2494C16.2152 20.2494 16.6689 20.1052 17.0488 19.8367C17.4286 19.5682 17.7159 19.1885 17.8711 18.75H21C21.1989 18.75 21.3897 18.671 21.5303 18.5303C21.671 18.3897 21.75 18.1989 21.75 18C21.75 17.8011 21.671 17.6103 21.5303 17.4697C21.3897 17.329 21.1989 17.25 21 17.25ZM21 11.25H10.3711C10.2159 10.8115 9.92861 10.4318 9.54876 10.1633C9.16891 9.89482 8.71517 9.75064 8.25 9.75064C7.78483 9.75064 7.33109 9.89482 6.95124 10.1633C6.57139 10.4318 6.2841 10.8115 6.12891 11.25H3C2.80109 11.25 2.61032 11.329 2.46967 11.4697C2.32902 11.6103 2.25 11.8011 2.25 12C2.25 12.1989 2.32902 12.3897 2.46967 12.5303C2.61032 12.671 2.80109 12.75 3 12.75H6.12891C6.2841 13.1885 6.57139 13.5682 6.95124 13.8367C7.33109 14.1052 7.78483 14.2494 8.25 14.2494C8.71517 14.2494 9.16891 14.1052 9.54876 13.8367C9.92861 13.5682 10.2159 13.1885 10.3711 12.75H21C21.1989 12.75 21.3897 12.671 21.5303 12.5303C21.671 12.3897 21.75 12.1989 21.75 12C21.75 11.8011 21.671 11.6103 21.5303 11.4697C21.3897 11.329 21.1989 11.25 21 11.25Z" fill="#C6CBD6"/>
</svg>
