<svg width="24" height="24" viewBox="0 0 24 24" fill="none" xmlns="http://www.w3.org/2000/svg">
<rect x="3.25" y="3.07556" width="17.5" height="17.8488" rx="2" fill="white"/>
<path fill-rule="evenodd" clip-rule="evenodd" d="M14.8256 8.07556C14.4788 8.07556 14.1977 8.35669 14.1977 8.70347C14.1977 9.05025 14.4788 9.33138 14.8256 9.33138H16.6062L13.1639 12.7736L13.1639 12.7737C13.1347 12.8028 13.1001 12.826 13.062 12.8418C13.0239 12.8575 12.9831 12.8657 12.9419 12.8657C12.9006 12.8657 12.8598 12.8575 12.8217 12.8418C12.7836 12.826 12.749 12.8028 12.7198 12.7737L12.7198 12.7736L11.2264 11.2802L11.2263 11.2802C11.0806 11.1344 10.9075 11.0188 10.7171 10.9399C10.5266 10.861 10.3225 10.8203 10.1163 10.8203C9.9101 10.8203 9.70595 10.861 9.51547 10.9399C9.32502 11.0188 9.15197 11.1344 9.00621 11.2802L9.00616 11.2802L5.43391 14.8525C5.1887 15.0977 5.1887 15.4953 5.43391 15.7405C5.67912 15.9857 6.07669 15.9857 6.3219 15.7405L9.8942 12.1682L9.89426 12.1681C9.92341 12.139 9.95802 12.1158 9.99612 12.1001C10.0342 12.0843 10.075 12.0762 10.1163 12.0762C10.1575 12.0762 10.1983 12.0843 10.2364 12.1001C10.2745 12.1158 10.3091 12.139 10.3383 12.1681L10.3384 12.1682L11.8317 13.6616C11.9775 13.8074 12.1506 13.923 12.3411 14.002C12.5315 14.0809 12.7357 14.1215 12.9419 14.1215C13.148 14.1215 13.3522 14.0809 13.5427 14.002C13.7331 13.923 13.9062 13.8074 14.052 13.6616L17.4942 10.2194V12C17.4942 12.3468 17.7753 12.6279 18.1221 12.6279C18.4689 12.6279 18.75 12.3468 18.75 12V8.70347C18.75 8.35669 18.4689 8.07556 18.1221 8.07556H14.8256Z" fill="#1B254A"/>
</svg>
