<svg width="24" height="24" viewBox="0 0 24 24" fill="none" xmlns="http://www.w3.org/2000/svg">
<path d="M22.6791 1.52115C22.5016 1.47894 22.3149 1.50173 22.1527 1.58537L21.0001 2.161L19.8376 1.57975C19.7334 1.52768 19.6186 1.50058 19.5022 1.50058C19.3857 1.50058 19.2709 1.52768 19.1668 1.57975L17.9897 2.16147L16.8282 1.57975C16.7237 1.5273 16.6085 1.49999 16.4916 1.49999C16.3748 1.49999 16.2595 1.5273 16.1551 1.57975L15.0001 2.15959L13.854 1.58115C13.7498 1.52835 13.6348 1.50059 13.518 1.50011C13.4012 1.49962 13.2859 1.52641 13.1813 1.57834L12.0001 2.16193L10.8376 1.57928C10.7332 1.52724 10.6183 1.50015 10.5017 1.50015C10.3851 1.50015 10.2702 1.52724 10.1658 1.57928L9.00006 2.161L7.83569 1.57928C7.68558 1.50403 7.51456 1.48134 7.35003 1.51482C7.18549 1.54831 7.03695 1.63604 6.92819 1.76397C6.81096 1.90368 6.74776 2.08082 6.75006 2.26318V13.5001L6.7524 13.5024H15.7501C16.1479 13.5024 16.5294 13.6604 16.8107 13.9417C17.092 14.223 17.2501 14.6046 17.2501 15.0024V19.8751C17.2501 21.3249 18.8002 22.5001 20.2501 22.5001H20.8126C21.459 22.5001 22.079 22.2433 22.5361 21.7861C22.9933 21.329 23.2501 20.709 23.2501 20.0626V2.25006C23.2502 2.08219 23.194 1.91914 23.0905 1.78699C22.987 1.65484 22.8421 1.56123 22.6791 1.52115ZM19.5001 11.2501H13.5235C13.1185 11.2501 12.7688 10.9388 12.751 10.5338C12.7464 10.4326 12.7624 10.3315 12.798 10.2366C12.8336 10.1418 12.888 10.0551 12.958 9.98186C13.028 9.90862 13.1122 9.85032 13.2053 9.81048C13.2985 9.77064 13.3987 9.75008 13.5001 9.75006H19.4766C19.8816 9.75006 20.2313 10.0613 20.2491 10.4663C20.2537 10.5675 20.2377 10.6686 20.2021 10.7635C20.1665 10.8583 20.1121 10.945 20.0421 11.0183C19.9721 11.0915 19.888 11.1498 19.7948 11.1896C19.7016 11.2295 19.6014 11.25 19.5001 11.2501ZM19.5001 7.50006H10.5235C10.1185 7.50006 9.76881 7.18881 9.751 6.78381C9.74644 6.68259 9.76243 6.5815 9.79802 6.48664C9.83361 6.39178 9.88804 6.30511 9.95805 6.23186C10.028 6.15862 10.1122 6.10032 10.2053 6.06048C10.2985 6.02064 10.3987 6.00008 10.5001 6.00006H19.4766C19.8816 6.00006 20.2313 6.31131 20.2491 6.71631C20.2537 6.81752 20.2377 6.91861 20.2021 7.01348C20.1665 7.10834 20.1121 7.19501 20.0421 7.26826C19.9721 7.3415 19.888 7.3998 19.7948 7.43964C19.7016 7.47948 19.6014 7.50004 19.5001 7.50006Z" fill="white"/>
<path d="M15.75 19.875V15.75C15.75 15.5511 15.671 15.3603 15.5303 15.2197C15.3897 15.079 15.1989 15 15 15H2.25C1.85215 15.0012 1.47098 15.16 1.18988 15.4415C0.908777 15.7231 0.750618 16.1045 0.75 16.5023C0.75 18.8719 1.02094 19.8572 1.42781 20.6072C2.11828 21.8808 3.36844 22.5 5.25 22.5H16.7663C16.8032 22.5 16.8394 22.4891 16.8702 22.4686C16.901 22.4481 16.9251 22.419 16.9394 22.3849C16.9536 22.3508 16.9575 22.3132 16.9505 22.2769C16.9435 22.2405 16.9258 22.2071 16.8998 22.1808C16.4564 21.7359 15.75 21.1406 15.75 19.875Z" fill="white"/>
</svg>
