<svg width="24" height="24" viewBox="0 0 24 24" fill="none" xmlns="http://www.w3.org/2000/svg">
<path d="M16.5833 6.85714H14.0833V6.16071C14.0833 5.85287 13.9736 5.55764 13.7782 5.33997C13.5829 5.12229 13.3179 5 13.0417 5H10.9583C10.6821 5 10.4171 5.12229 10.2218 5.33997C10.0264 5.55764 9.91667 5.85287 9.91667 6.16071V6.85714H7.41667C7.30616 6.85714 7.20018 6.90606 7.12204 6.99313C7.0439 7.0802 7 7.19829 7 7.32143C7 7.44456 7.0439 7.56266 7.12204 7.64973C7.20018 7.7368 7.30616 7.78571 7.41667 7.78571H7.85938L8.35417 16.6338C8.39115 17.413 8.92708 18 9.60417 18H14.3958C15.0763 18 15.6016 17.426 15.6458 16.6362L16.1406 7.78571H16.5833C16.6938 7.78571 16.7998 7.7368 16.878 7.64973C16.9561 7.56266 17 7.44456 17 7.32143C17 7.19829 16.9561 7.0802 16.878 6.99313C16.7998 6.90606 16.6938 6.85714 16.5833 6.85714ZM10.3482 16.1429H10.3333C10.2254 16.1429 10.1216 16.0963 10.0438 16.0128C9.9661 15.9292 9.92051 15.8154 9.91667 15.6951L9.70833 9.19511C9.7044 9.07198 9.74452 8.95214 9.81988 8.86197C9.89523 8.7718 9.99965 8.71867 10.1102 8.71429C10.2207 8.7099 10.3282 8.75461 10.4091 8.83858C10.4901 8.92254 10.5377 9.03889 10.5417 9.16203L10.75 15.662C10.752 15.723 10.7432 15.7838 10.724 15.841C10.7049 15.8982 10.6759 15.9506 10.6385 15.9953C10.6012 16.0399 10.5564 16.0759 10.5065 16.1013C10.4567 16.1266 10.4029 16.1407 10.3482 16.1429ZM12.4167 15.6786C12.4167 15.8017 12.3728 15.9198 12.2946 16.0069C12.2165 16.0939 12.1105 16.1429 12 16.1429C11.8895 16.1429 11.7835 16.0939 11.7054 16.0069C11.6272 15.9198 11.5833 15.8017 11.5833 15.6786V9.17857C11.5833 9.05544 11.6272 8.93734 11.7054 8.85027C11.7835 8.7632 11.8895 8.71429 12 8.71429C12.1105 8.71429 12.2165 8.7632 12.2946 8.85027C12.3728 8.93734 12.4167 9.05544 12.4167 9.17857V15.6786ZM13.25 6.85714H10.75V6.16071C10.7497 6.13013 10.7549 6.09979 10.7652 6.07146C10.7756 6.04314 10.7909 6.01741 10.8103 5.99578C10.8297 5.97416 10.8528 5.95707 10.8782 5.94553C10.9037 5.93399 10.9309 5.92822 10.9583 5.92857H13.0417C13.0691 5.92822 13.0963 5.93399 13.1218 5.94553C13.1472 5.95707 13.1703 5.97416 13.1897 5.99578C13.2091 6.01741 13.2244 6.04314 13.2348 6.07146C13.2451 6.09979 13.2503 6.13013 13.25 6.16071V6.85714ZM14.0833 15.6951C14.0795 15.8154 14.0339 15.9292 13.9562 16.0128C13.8784 16.0963 13.7746 16.1429 13.6667 16.1429H13.6516C13.5969 16.1407 13.5431 16.1265 13.4933 16.1012C13.4435 16.0758 13.3987 16.0398 13.3614 15.9952C13.3241 15.9505 13.295 15.8981 13.2759 15.8409C13.2568 15.7838 13.248 15.723 13.25 15.662L13.4583 9.16203C13.4603 9.10106 13.473 9.04111 13.4957 8.98562C13.5185 8.93012 13.5508 8.88015 13.5909 8.83858C13.6309 8.797 13.678 8.76462 13.7293 8.7433C13.7806 8.72197 13.8351 8.71211 13.8898 8.71429C13.9446 8.71646 13.9984 8.73062 14.0482 8.75596C14.098 8.7813 14.1428 8.81732 14.1801 8.86197C14.2174 8.90662 14.2465 8.95902 14.2656 9.01618C14.2848 9.07334 14.2936 9.13414 14.2917 9.19511L14.0833 15.6951Z" fill="#C91919"/>
</svg>
