<svg width="24" height="25" viewBox="0 0 24 25" fill="none" xmlns="http://www.w3.org/2000/svg">
<path d="M4.47656 5.375H19.4766C19.6518 5.37491 19.8268 5.38603 20.0006 5.40828C19.9417 4.99473 19.7997 4.5974 19.583 4.24024C19.3664 3.88308 19.0797 3.57348 18.7402 3.33012C18.4007 3.08676 18.0154 2.91467 17.6076 2.82423C17.1998 2.7338 16.7779 2.72688 16.3673 2.8039L4.03125 4.91H4.01719C3.24285 5.05807 2.55425 5.49618 2.09203 6.13484C2.7884 5.63952 3.622 5.37389 4.47656 5.375ZM19.4766 6.5H4.47656C3.68118 6.50086 2.91862 6.81721 2.3562 7.37963C1.79378 7.94206 1.47743 8.70461 1.47656 9.5V18.5C1.47743 19.2954 1.79378 20.0579 2.3562 20.6204C2.91862 21.1828 3.68118 21.4991 4.47656 21.5H19.4766C20.2719 21.4991 21.0345 21.1828 21.5969 20.6204C22.1593 20.0579 22.4757 19.2954 22.4766 18.5V9.5C22.4757 8.70461 22.1593 7.94206 21.5969 7.37963C21.0345 6.81721 20.2719 6.50086 19.4766 6.5ZM17.25 15.5C16.9533 15.5 16.6633 15.412 16.4166 15.2472C16.17 15.0824 15.9777 14.8481 15.8642 14.574C15.7506 14.2999 15.7209 13.9983 15.7788 13.7074C15.8367 13.4164 15.9796 13.1491 16.1893 12.9393C16.3991 12.7296 16.6664 12.5867 16.9574 12.5288C17.2483 12.4709 17.5499 12.5006 17.824 12.6142C18.0981 12.7277 18.3324 12.92 18.4972 13.1666C18.662 13.4133 18.75 13.7033 18.75 14C18.75 14.3978 18.592 14.7794 18.3107 15.0607C18.0294 15.342 17.6478 15.5 17.25 15.5Z" fill="white"/>
<path d="M1.5 12.6641V8C1.5 6.98422 2.0625 5.28125 4.01484 4.91234C5.67188 4.60156 7.3125 4.60156 7.3125 4.60156C7.3125 4.60156 8.39062 5.35156 7.5 5.35156C6.60938 5.35156 6.63281 6.5 7.5 6.5C8.36719 6.5 7.5 7.60156 7.5 7.60156L4.00781 11.5625L1.5 12.6641Z" fill="white"/>
</svg>
